<svg xmlns:dc="http://purl.org/dc/elements/1.1/" xmlns:cc="http://creativecommons.org/ns#" xmlns:rdf="http://www.w3.org/1999/02/22-rdf-syntax-ns#" xmlns:svg="http://www.w3.org/2000/svg" xmlns="http://www.w3.org/2000/svg" xmlns:sodipodi="http://sodipodi.sourceforge.net/DTD/sodipodi-0.dtd" xmlns:inkscape="http://www.inkscape.org/namespaces/inkscape" version="1.1" x="0px" y="0px" viewBox="0 0 100 125"><g transform="translate(0,-952.36218)"><path style="text-indent:0;text-transform:none;direction:ltr;block-progression:tb;baseline-shift:baseline;color:#000000;enable-background:accumulate;" d="m 44.441603,958.3622 a 2.000005,2.000005 0 0 0 -1.9813,1.72781 l -1.135,8.27344 c -3.2898,0.83628 -6.3886,2.1392 -9.2287,3.82719 l -6.6578,-5.04906 a 2.000005,2.000005 0 0 0 -2.622501,0.17937 l -7.8622,7.86219 a 2.000005,2.000005 0 0 0 -0.1794,2.6225 l 5.0494,6.65781 c -1.6876,2.84186 -2.9844,5.93948 -3.8247,9.21969 l -8.2780995,1.14437 a 2.000005,2.000005 0 0 0 -1.726,1.98094 l 0,11.11755 a 2.000005,2.000005 0 0 0 1.7282,1.9812 l 8.2720995,1.135 c 0.8396,3.299 2.1446,6.4095 3.8432,9.256 a 2.000005,2.000005 0 0 0 3.179001,0.3403 l 9.625,-10.306 a 2.000005,2.000005 0 0 0 0.4303,-2.0131 c -1.9951,-5.8235 -0.8645,-12.52118 3.5585,-17.42189 0,-10e-5 0,-2e-4 0,-3e-4 3.3494,-3.70955 7.9084,-5.65211 12.5281,-5.77688 l -8.8969,9.8575 a 2.000005,2.000005 0 0 0 -0.4743,1.74313 l 1.2618,6.12974 a 2.000005,2.000005 0 0 0 0,6e-4 l 1.2619,6.1193 a 2.000005,2.000005 0 0 0 1.7569,1.586 l 6.2197,0.6309 6.2197,0.631 a 2.000005,2.000005 0 0 0 1.6862,-0.6497 l 8.8956,-9.856 c 0.346,4.6043 -1.116201,9.338 -4.4631,13.045 a 2.000005,2.000005 0 0 0 0,3e-4 c -4.4238,4.9013 -10.9697,6.7135 -16.9622,5.321 a 2.000005,2.000005 0 0 0 -1.9597,0.6334 l -9.3143,10.6766 a 2.000005,2.000005 0 0 0 0.6572,3.125 c 2.0005,0.9388 4.0977,1.6963 6.2762,2.2546 l 1.1356,8.2657 a 2.000005,2.000005 0 0 0 1.981,1.7278 l 11.1175,0 a 2.000005,2.000005 0 0 0 1.9812,-1.7278 l 1.1353,-8.266 c 3.2869,-0.8403 6.3862,-2.1372 9.2285,-3.825 l 6.6578,5.0494 a 2.000005,2.000005 0 0 0 2.6225,-0.1794 l 7.862195,-7.8622 a 2.000005,2.000005 0 0 0 0.1793,-2.6225 l -5.048995,-6.6575 c 1.687995,-2.8402 2.990894,-5.9391 3.827195,-9.229 l 8.2734,-1.135 a 2.000005,2.000005 0 0 0 1.7278,-1.9813 l 0,-11.11748 a 2.000005,2.000005 0 0 0 -1.7259,-1.98094 l -8.2753,-1.14406 c -0.8364,-3.28326 -2.1394,-6.38055 -3.827195,-9.22031 l 5.048995,-6.6575 a 2.000005,2.000005 0 0 0 -0.1793,-2.6225 l -7.862195,-7.86219 a 2.000005,2.000005 0 0 0 -2.6225,-0.17937 l -6.6575,5.04906 c -2.8401,-1.68799 -5.9393,-2.99092 -9.2291,-3.82719 l -1.135,-8.27344 a 2.000005,2.000005 0 0 0 -1.9812,-1.72781 l -11.1175,0 z" fill="#000000" fill-opacity="1" fill-rule="evenodd" stroke="none" marker="none" visibility="visible" display="inline" overflow="visible"/></g><text x="0" y="115" fill="#000000" font-size="5px" font-weight="bold" font-family="'Helvetica Neue', Helvetica, Arial-Unicode, Arial, Sans-serif">Created by GreenHill</text><text x="0" y="120" fill="#000000" font-size="5px" font-weight="bold" font-family="'Helvetica Neue', Helvetica, Arial-Unicode, Arial, Sans-serif">from the Noun Project</text></svg>