<svg xmlns="http://www.w3.org/2000/svg" xmlns:xlink="http://www.w3.org/1999/xlink" version="1.1" x="0px" y="0px" viewBox="0 0 100 125" enable-background="new 0 0 100 100" xml:space="preserve"><path d="M58.5,62.5c1.105,0,2-0.895,2-2v-12h4v12c0,1.105,0.895,2,2,2s2-0.895,2-2v-12h4v12c0,1.105,0.895,2,2,2s2-0.895,2-2v-16  c0-0.395-0.117-0.781-0.336-1.109l-8-12c-0.742-1.113-2.586-1.113-3.328,0l-8,12C56.617,43.719,56.5,44.105,56.5,44.5v16  C56.5,61.605,57.395,62.5,58.5,62.5z M64.904,38.5h3.191l4,6H60.904L64.904,38.5z M26.5,38.5h22c1.105,0,2-0.896,2-2s-0.895-2-2-2  h-22c-1.104,0-2,0.896-2,2S25.396,38.5,26.5,38.5z M26.5,48.5h22c1.105,0,2-0.895,2-2c0-1.104-0.895-2-2-2h-22c-1.104,0-2,0.896-2,2  C24.5,47.605,25.396,48.5,26.5,48.5z M26.5,58.5h12c1.104,0,2-0.895,2-2s-0.896-2-2-2h-12c-1.104,0-2,0.895-2,2  S25.396,58.5,26.5,58.5z M87.5,66.5v-44c0-1.104-0.895-2-2-2h-70c-1.104,0-2,0.896-2,2v44c0,1.105,0.896,2,2,2h70  C86.605,68.5,87.5,67.605,87.5,66.5z M83.5,64.5h-66v-40h66V64.5z M97.5,70.5h-4v-50c0-4.411-3.588-8-8-8h-70c-4.411,0-8,3.589-8,8  v50h-4c-1.104,0-2,0.895-2,2v4c0,4.412,3.589,8,8,8h82c4.412,0,8-3.588,8-8v-4C99.5,71.395,98.605,70.5,97.5,70.5z M11.5,20.5  c0-2.206,1.794-4,4-4h70c2.205,0,4,1.794,4,4v50h-23c-0.311,0-0.617,0.072-0.895,0.211L62.027,72.5H38.972l-3.577-1.789  C35.117,70.572,34.811,70.5,34.5,70.5h-23V20.5z M95.5,76.5c0,2.205-1.795,4-4,4h-82c-2.206,0-4-1.795-4-4v-2h28.528l3.577,1.789  c0.277,0.139,0.584,0.211,0.895,0.211h24c0.311,0,0.617-0.072,0.895-0.211l3.578-1.789H95.5V76.5z"/><text x="0" y="115" fill="#000000" font-size="5px" font-weight="bold" font-family="'Helvetica Neue', Helvetica, Arial-Unicode, Arial, Sans-serif">Created by Sergey Demushkin</text><text x="0" y="120" fill="#000000" font-size="5px" font-weight="bold" font-family="'Helvetica Neue', Helvetica, Arial-Unicode, Arial, Sans-serif">from the Noun Project</text></svg>