<svg xmlns="http://www.w3.org/2000/svg" xmlns:xlink="http://www.w3.org/1999/xlink" version="1.1" x="0px" y="0px" viewBox="0 0 95 118.75" enable-background="new 0 0 95 95" xml:space="preserve"><g><path d="M61.191,58.789c0,1.469-1.193,2.66-2.662,2.66H52.74v5.789c0,1.469-1.191,2.66-2.662,2.66h-5.156   c-1.471,0-2.66-1.191-2.66-2.66v-5.789h-5.791c-1.469,0-2.66-1.191-2.66-2.66v-5.158c0-1.471,1.191-2.662,2.66-2.662h5.791V45.18   c0-1.469,1.189-2.66,2.66-2.66h5.156c1.471,0,2.662,1.191,2.662,2.66v5.789h5.789c1.469,0,2.662,1.191,2.662,2.662V58.789z"/><path d="M84.76,23.668H10.24c-1.936,0-3.504,1.566-3.504,3.504v57.934c0,1.934,1.568,3.502,3.504,3.502h74.52   c1.936,0,3.504-1.568,3.504-3.502V27.172C88.264,25.234,86.695,23.668,84.76,23.668z M47.5,78.879   c-12.561,0-22.742-10.182-22.742-22.74c0-12.563,10.182-22.744,22.742-22.744c12.559,0,22.742,10.182,22.742,22.744   C70.242,68.697,60.059,78.879,47.5,78.879z"/><path d="M47.449,14.084c5.109,0,9.533,2.984,11.621,7.301h8.193c-2.447-8.641-10.4-14.992-19.814-14.992   s-17.367,6.352-19.813,14.992h8.189C37.916,17.068,42.34,14.084,47.449,14.084z"/></g></svg>